<svg xmlns="http://www.w3.org/2000/svg" viewBox="0 0 128 128" width="128" height="128">
  <defs>
    <linearGradient id="grad1" x1="0%" y1="0%" x2="100%" y2="100%">
      <stop offset="0%" style="stop-color:#4A90E2;stop-opacity:1" />
      <stop offset="100%" style="stop-color:#357ABD;stop-opacity:1" />
    </linearGradient>
  </defs>
  
  <!-- Background circle -->
  <circle cx="64" cy="64" r="60" fill="url(#grad1)" stroke="#2C5AA0" stroke-width="2"/>
  
  <!-- Wizard hat -->
  <path d="M30 70 L50 70 L40 50 Z" fill="#FFD700" stroke="#B8860B" stroke-width="1"/>
  <ellipse cx="40" cy="70" rx="20" ry="8" fill="#FFD700" stroke="#B8860B" stroke-width="1"/>
  
  <!-- Magic wand -->
  <line x1="80" y1="40" x2="100" y2="20" stroke="#FFD700" stroke-width="3" stroke-linecap="round"/>
  <circle cx="100" cy="20" r="3" fill="#FFD700"/>
  
  <!-- Null symbol (Ø) -->
  <circle cx="64" cy="90" r="12" fill="none" stroke="#FFFFFF" stroke-width="3"/>
  <line x1="52" y1="78" x2="76" y2="102" stroke="#FFFFFF" stroke-width="3"/>
  
  <!-- Stars -->
  <polygon points="20,30 22,35 27,35 23,38 25,43 20,40 15,43 17,38 13,35 18,35" fill="#FFD700"/>
  <polygon points="100,80 102,85 107,85 103,88 105,93 100,90 95,93 97,88 93,85 98,85" fill="#FFD700"/>
</svg>
